<?xml version="1.0" encoding="UTF-8" standalone="no"?>
<!-- Created with Inkscape (http://www.inkscape.org/) -->

<svg
   width="130.00002mm"
   height="109.99998mm"
   viewBox="0 0 130.00002 109.99998"
   version="1.1"
   id="svg1"
   xml:space="preserve"
   xmlns:inkscape="http://www.inkscape.org/namespaces/inkscape"
   xmlns:sodipodi="http://sodipodi.sourceforge.net/DTD/sodipodi-0.dtd"
   xmlns="http://www.w3.org/2000/svg"
   xmlns:svg="http://www.w3.org/2000/svg"><sodipodi:namedview
     id="namedview1"
     pagecolor="#505050"
     bordercolor="#ffffff"
     borderopacity="1"
     inkscape:showpageshadow="0"
     inkscape:pageopacity="0"
     inkscape:pagecheckerboard="1"
     inkscape:deskcolor="#505050"
     inkscape:document-units="mm"><inkscape:page
       x="7.0762623e-14"
       y="0"
       width="130.00002"
       height="109.99998"
       id="page2"
       margin="0"
       bleed="0" /></sodipodi:namedview><defs
     id="defs1" /><g
     inkscape:label="Camada 1"
     inkscape:groupmode="layer"
     id="layer1"
     transform="translate(-34.967289,-47.302242)"><path
       style="display:inline;fill:#ec0000;fill-opacity:1;stroke:#000000;stroke-width:0.938663;stroke-dasharray:none;stroke-opacity:1"
       d="m 44.303508,59.897783 c 1.788849,-1.951427 4.889917,-4.317469 7.228218,-5.873809 2.338304,-1.556342 4.372968,-2.597121 6.685219,-3.53869 2.312249,-0.941567 4.476305,-1.449393 7.093858,-1.916358 2.617554,-0.466964 5.232863,-0.802601 8.375524,-0.458732 3.142661,0.343869 7.237489,1.330074 10.074977,2.57674 1.418212,0.623102 2.769357,1.34572 3.921598,2.002559 1.153103,0.657331 2.395853,1.49659 3.532555,2.352667 0.948535,0.714362 2.079446,1.783628 3.17091,2.834226 1.523534,1.466482 2.435607,2.964353 2.756034,3.336223 2.614389,3.034119 2.075268,4.969871 5.048429,0.755754 1.14655,-1.623567 3.19831,-3.830759 5.06365,-5.466988 1.86537,-1.63623 3.78104,-3.14681 6.28365,-4.511409 2.50258,-1.364602 5.59338,-2.950061 8.57331,-3.606804 2.9799,-0.656744 5.69341,-0.65663 8.46968,-0.573829 2.77624,0.08279 5.52773,0.303891 8.16353,1.036294 2.6358,0.732403 5.22393,2.364324 7.50743,3.722708 2.28351,1.358384 3.57791,1.895632 6.18424,4.352806 1.34405,1.267144 3.34657,3.001153 4.98494,5.017782 1.53868,1.893906 2.72589,4.051694 3.65279,5.868019 1.91389,3.750341 2.60909,7.509135 3.04915,10.984741 0.44005,3.475604 0.50273,6.522368 0.13534,9.635001 -0.36736,3.112635 -1.36682,6.097771 -2.28315,8.961977 -0.91632,2.864189 -1.95149,5.201729 -3.48253,8.160799 -1.53105,2.95908 -3.69921,6.42478 -5.82673,9.47607 -2.1275,3.05128 -4.2303,5.63305 -6.91914,8.80133 -2.68883,3.16826 -4.99382,5.91226 -9.2766,10.13677 -4.28276,4.22452 -12.66345,11.6046 -16.70434,14.87726 -4.04092,3.27264 -4.72159,3.98223 -7.09612,5.2177 -2.37453,1.23547 -4.55006,1.87114 -6.85408,2.3238 -2.30403,0.45265 -4.92441,0.4949 -6.829047,0.42112 -1.904633,-0.0739 -3.156678,-0.35165 -4.546412,-0.63658 -1.389736,-0.28493 -2.338693,-0.4891 -3.783243,-1.02846 -1.444551,-0.53935 -1.020844,0.12161 -4.796504,-2.31502 -3.775658,-2.4366 -12.014096,-9.72246 -16.527361,-13.85112 -4.513268,-4.12866 -7.428372,-6.71081 -10.848605,-10.45233 -3.420234,-3.74153 -7.121621,-8.41301 -9.485034,-11.51418 -2.36341,-3.10115 -3.418556,-4.82506 -4.805818,-7.14439 -1.387262,-2.31934 -2.743476,-4.56046 -3.884972,-7.07964 -1.141492,-2.51916 -2.264911,-5.093779 -3.131177,-7.997923 -0.866265,-2.904146 -1.586626,-6.33463 -1.717739,-9.511836 -0.131111,-3.177204 0.319009,-7.25017 0.838565,-9.608039 0.519553,-2.357866 0.996341,-3.593221 1.673723,-5.334603 0.677385,-1.741383 1.221418,-2.801585 2.247164,-4.67712 1.025745,-1.875534 2.295268,-3.803063 4.084118,-5.754486 z"
       id="path1"
       sodipodi:nodetypes="sssssssssssssssssssssssssssssssssssssssssssss"
       inkscape:export-filename="Fernanda.png"
       inkscape:export-xdpi="3.1261537"
       inkscape:export-ydpi="3.1261537" /></g></svg>
