<?xml version="1.0" encoding="UTF-8" standalone="no"?>
<!-- Created with Inkscape (http://www.inkscape.org/) -->

<svg
   version="1.1"
   id="svg1"
   width="757"
   height="512"
   viewBox="0 0 757 512"
   xmlns="http://www.w3.org/2000/svg"
   xmlns:svg="http://www.w3.org/2000/svg">
  <defs
     id="defs1" />
  <g
     id="g1">
    <path
       style="display:inline;fill:#f95252;stroke:none"
       d="m 162,46 v 1 c 5.76378,4.186249 15.03848,13.872864 22.62973,13.432098 7.80176,-0.453003 16.14697,-12.759155 22.37231,-17.084777 C 220.80258,33.758118 238.11548,28.227203 255,29.493134 c 8.57907,0.643219 17.10361,2.632324 25,6.061523 64.54449,28.03009 48,112.788573 48,169.445343 11.7601,-1.35565 19.5694,2.17279 29,9 V 134 C 357,109.32367 357.30045,84.945068 346.86722,62 323.48666,10.580719 261.94092,-12.810425 210,8.0142212 190.16745,15.965668 175.44031,29.767944 162,46 m 238,168 c 9.43347,-6.68677 17.29813,-10.29987 29,-9 0,-56.10397 -16.55621,-141.839233 48,-169.282227 7.94833,-3.378845 16.39517,-5.379791 25,-6.050415 16.76703,-1.306732 34.30408,4.114014 47.99652,13.714844 6.26849,4.395325 14.47815,16.597168 22.34699,17.178955 C 580.01837,61.128601 589.30811,51.306793 595,47 548.91797,-17.069885 448.11609,-14.29187 411.76111,59 399.85638,83 400,108.83426 400,135 v 79 M 57,47 71.300255,108 96,207 c -31.126106,4.27097 -64.596756,1 -96,1 9.0364542,50.42105 32.313725,95.23203 74,126.51581 11.19574,8.40191 23.206573,15.71081 36,21.4129 7.31506,3.26038 17.99264,5.29981 23.09457,11.90421 C 142.94778,380.5878 143.30829,404.71231 148,420 167.63669,408.45764 183.82156,391.1998 197.26071,373 273.21686,270.13727 233.37662,117.15533 117,63.969635 98.078537,55.322266 77.717155,49.210022 57,47 m 553,373 c 2.74225,-14.62711 4.71558,-41.43726 14.67285,-52.87738 6.56934,-7.54767 20.53919,-10.04492 29.32715,-14.43893 16.40912,-8.20466 31.46228,-18.80527 44.9491,-31.23035 C 731.34906,291.60406 750.31146,251.0675 757,208 H 662 L 701,47 C 679.95477,48.916962 659.0658,55.26709 640,64.269073 529.97522,116.21759 486.6366,256.02158 551.29468,360 565.58447,382.97986 585.50006,407.49265 610,420 M 329.00717,269.17896 c -31.26587,8.25976 -17.7937,56.23818 12.98871,48.5736 32.16522,-8.00891 18.88522,-56.99398 -12.98871,-48.5736 m 85.9971,-0.0159 c -31.60177,8.08068 -18.43387,56.90033 12.98856,48.52423 31.34329,-8.35498 18.29211,-56.52277 -12.98856,-48.52423 M 147,510 608,512 C 592.04706,472.20239 568.11505,436.79504 535,409.19849 436.284,326.93317 285.71225,335.93314 197.18701,429.00574 175.87762,451.40973 155.69009,479.98761 147,510 Z"
       id="path2" />
  </g>
</svg>
