<?xml version="1.0" encoding="UTF-8" standalone="no"?>
<svg
   viewBox="0 0 576.07202 257.23199"
   version="1.1"
   id="svg1"
   width="576.07202"
   height="257.23199"
   xmlns="http://www.w3.org/2000/svg"
   xmlns:svg="http://www.w3.org/2000/svg">
  <defs
     id="defs1" />
  <path
     d="m 17.967,-147.433 a 3.196,3.196 0 0 1 0.394,-1.53 l -0.008,0.017 a 2.677,2.677 0 0 1 1.075,-1.108 l 0.014,-0.007 a 3.181,3.181 0 0 1 1.523,-0.382 h 0.05 -0.003 q 1.346,0 2.2,0.871 0.854,0.871 0.86,2.203 c 0,0.895 -0.29,1.635 -0.867,2.226 -0.577,0.591 -1.306,0.886 -2.183,0.886 -0.566,0 -1.1,-0.137 -1.571,-0.379 l 0.019,0.009 a 2.535,2.535 0 0 1 -1.115,-1.067 l -0.007,-0.013 q -0.38,-0.708 -0.381,-1.726 z m 1.593,0.083 c 0,0.591 0.138,1.043 0.42,1.349 a 1.365,1.365 0 0 0 2.066,0.002 l 0.001,-0.002 c 0.275,-0.307 0.413,-0.764 0.413,-1.357 0,-0.593 -0.138,-1.033 -0.413,-1.342 a 1.371,1.371 0 0 0 -2.066,-0.001 l -0.001,0.002 c -0.281,0.306 -0.42,0.758 -0.42,1.345 z m -1.602,2.941 h -1.556 v -3.015 c 0,-0.635 -0.032,-1.044 -0.101,-1.234 a 0.876,0.876 0 0 0 -0.328,-0.435 l -0.003,-0.002 a 0.938,0.938 0 0 0 -0.521,-0.156 h -0.027 10e-4 -0.012 c -0.27,0 -0.521,0.084 -0.727,0.228 l 0.004,-0.003 a 1.115,1.115 0 0 0 -0.444,0.576 l -0.002,0.008 c -0.083,0.248 -0.121,0.696 -0.121,1.359 v 2.673 h -1.549 v -5.923 h 1.439 v 0.867 c 0.518,-0.656 1.167,-0.98 1.952,-0.98 h 0.021 c 0.335,0 0.655,0.067 0.946,0.189 l -0.016,-0.006 c 0.261,0.105 0.48,0.268 0.648,0.475 l 0.002,0.003 c 0.141,0.185 0.247,0.404 0.304,0.643 l 0.002,0.012 c 0.057,0.278 0.089,0.597 0.089,0.924 l -0.002,0.135 v -0.007 z m -11.473,-5.923 h 1.654 l 1.412,4.204 1.376,-4.204 h 1.611 l -2.067,5.693 -0.38,1.038 a 4.158,4.158 0 0 1 -0.4,0.807 l 0.01,-0.017 a 1.637,1.637 0 0 1 -0.422,0.443 l -0.005,0.003 c -0.17,0.113 -0.367,0.203 -0.578,0.26 l -0.014,0.003 c -0.232,0.064 -0.499,0.1 -0.774,0.1 H 7.883 7.884 a 4.13,4.13 0 0 1 -0.911,-0.105 l 0.028,0.005 -0.129,-1.229 c 0.198,0.046 0.426,0.074 0.659,0.077 h 0.002 c 0.36,0 0.628,-0.106 0.8,-0.318 a 2.27,2.27 0 0 0 0.395,-0.807 l 0.004,-0.016 z m -6.413,3.262 1.592,-0.149 q 0.147,0.802 0.586,1.181 0.439,0.379 1.192,0.375 c 0.528,0 0.927,-0.113 1.197,-0.335 0.27,-0.222 0.4,-0.486 0.4,-0.782 v -0.024 a 0.751,0.751 0 0 0 -0.167,-0.474 l 0.001,0.001 c -0.113,-0.132 -0.309,-0.252 -0.59,-0.347 -0.193,-0.074 -0.631,-0.191 -1.312,-0.365 -0.882,-0.216 -1.496,-0.486 -1.85,-0.804 a 2.147,2.147 0 0 1 -0.749,-1.631 v -0.028 c 0,-0.431 0.132,-0.831 0.358,-1.163 l -0.005,0.007 a 2.226,2.226 0 0 1 1.003,-0.826 l 0.015,-0.005 c 0.442,-0.184 0.973,-0.281 1.602,-0.281 q 1.529,0 2.304,0.676 c 0.516,0.457 0.785,1.057 0.811,1.809 l -1.649,0.055 c -0.073,-0.413 -0.219,-0.714 -0.452,-0.899 -0.233,-0.185 -0.579,-0.276 -1.034,-0.276 -0.476,0 -0.85,0.098 -1.118,0.298 a 0.59,0.59 0 0 0 -0.261,0.49 v 0.011 -10e-4 0.002 c 0,0.201 0.095,0.379 0.242,0.493 l 10e-4,0.001 c 0.205,0.179 0.709,0.36 1.507,0.546 0.798,0.186 1.388,0.387 1.769,0.59 0.374,0.196 0.678,0.48 0.893,0.825 l 0.006,0.01 c 0.214,0.345 0.326,0.786 0.326,1.305 0,0.489 -0.146,0.944 -0.396,1.325 l 0.006,-0.009 c -0.264,0.408 -0.64,0.724 -1.084,0.908 l -0.016,0.006 c -0.475,0.194 -1.065,0.298 -1.772,0.298 -1.029,0 -1.819,-0.241 -2.373,-0.722 -0.554,-0.481 -0.879,-1.177 -0.986,-2.091 z"
     id="path1" />
</svg>
